<svg width="19" height="21" viewBox="0 0 19 21" fill="none" xmlns="http://www.w3.org/2000/svg">
<path d="M9.49993 10.3044C12.2492 10.3044 14.4774 8.07616 14.4774 5.32687C14.4774 2.57757 12.2492 0.349365 9.49993 0.349365C6.75064 0.349365 4.52243 2.57757 4.52243 5.32687C4.52243 8.07616 6.75064 10.3044 9.49993 10.3044ZM4.83353 16.8373C4.83353 17.3545 5.24961 17.7706 5.76681 17.7706C6.284 17.7706 6.70009 17.3545 6.70009 16.8373C6.70009 16.3201 6.284 15.9041 5.76681 15.9041C5.24961 15.9041 4.83353 16.3201 4.83353 16.8373ZM13.2331 11.5721V13.4775C14.6524 13.7653 15.7218 15.0252 15.7218 16.5262V18.1478C15.7218 18.4434 15.5118 18.7 15.2202 18.7583L13.968 19.0072C13.8008 19.0422 13.6375 18.9333 13.6025 18.7622L13.4819 18.1517C13.4469 17.9845 13.5558 17.8173 13.7269 17.7862L14.4774 17.6345V16.5262C14.4774 14.0842 10.7443 13.9947 10.7443 16.6001V17.6384L11.4948 17.7901C11.662 17.8251 11.7709 17.9884 11.7398 18.1556L11.6193 18.7661C11.5843 18.9333 11.4209 19.0422 11.2537 19.0111L10.0405 18.8478C9.73325 18.805 9.50382 18.5445 9.50382 18.2295V16.5262C9.50382 15.0252 10.5732 13.7692 11.9926 13.4775V11.7198C11.907 11.7471 11.8215 11.7626 11.7359 11.7937C11.036 12.0387 10.2854 12.1748 9.50382 12.1748C8.7222 12.1748 7.97168 12.0387 7.27172 11.7937C6.98396 11.6926 6.69231 11.6304 6.39288 11.5915V14.7647C7.29117 15.033 7.94835 15.8574 7.94835 16.8412C7.94835 18.0428 6.9723 19.0189 5.7707 19.0189C4.5691 19.0189 3.59304 18.0428 3.59304 16.8412C3.59304 15.8574 4.25022 15.033 5.14851 14.7647V11.6382C2.67531 12.0543 0.789307 14.1853 0.789307 16.7751V18.5172C0.789307 19.4777 1.57093 20.2594 2.53143 20.2594H16.4684C17.4289 20.2594 18.2106 19.4777 18.2106 18.5172V16.7751C18.2106 13.9753 16.0018 11.7082 13.2331 11.5721Z" fill="#191919"/>
</svg>
