<svg width="24" height="21" viewBox="0 0 24 21" fill="none" xmlns="http://www.w3.org/2000/svg">
<path d="M12.0699 8.88509C8.54085 8.88509 3.53721 14.3407 3.53721 17.7845C3.53721 19.3354 4.72868 20.2621 6.72543 20.2621C8.89594 20.2621 10.3292 19.1475 12.0699 19.1475C13.8258 19.1475 15.263 20.2621 17.4144 20.2621C19.4112 20.2621 20.6027 19.3354 20.6027 17.7845C20.6027 14.3407 15.599 8.88509 12.0699 8.88509ZM5.52462 8.32468C5.06243 6.78479 3.63854 5.78753 2.34441 6.09684C1.05028 6.40615 0.376102 7.90516 0.838291 9.44505C1.30048 10.9849 2.72438 11.9822 4.01851 11.6729C5.31264 11.3636 5.98681 9.86457 5.52462 8.32468ZM9.28969 7.40119C10.6647 7.03944 11.3527 5.1818 10.8265 3.25216C10.3003 1.32252 8.75906 0.0519411 7.38405 0.413693C6.00903 0.775445 5.32108 2.63309 5.84727 4.56273C6.37345 6.49237 7.91512 7.76339 9.28969 7.40119ZM21.795 6.09729C20.5009 5.78798 19.0774 6.78524 18.6148 8.32513C18.1526 9.86502 18.8268 11.364 20.1209 11.6733C21.415 11.9826 22.8385 10.9854 23.3011 9.44549C23.7633 7.9056 23.0891 6.4066 21.795 6.09729ZM14.8502 7.40119C16.2252 7.76294 17.7664 6.49237 18.2926 4.56273C18.8188 2.63309 18.1308 0.775889 16.7558 0.413693C15.3808 0.0514967 13.8396 1.32252 13.3134 3.25216C12.7872 5.1818 13.4752 7.03944 14.8502 7.40119Z" fill="black"/>
</svg>
