<svg width="18" height="21" viewBox="0 0 18 21" fill="none" xmlns="http://www.w3.org/2000/svg">
<path d="M8.93035 10.3071C11.6796 10.3071 13.9079 8.07884 13.9079 5.32955C13.9079 2.58026 11.6796 0.352051 8.93035 0.352051C6.18106 0.352051 3.95285 2.58026 3.95285 5.32955C3.95285 8.07884 6.18106 10.3071 8.93035 10.3071ZM12.4146 11.5514H11.7652C10.9019 11.9481 9.94141 12.1736 8.93035 12.1736C7.9193 12.1736 6.96268 11.9481 6.09551 11.5514H5.4461C2.56071 11.5514 0.219727 13.8924 0.219727 16.7778V18.3955C0.219727 19.426 1.05579 20.2621 2.08629 20.2621H15.7744C16.8049 20.2621 17.641 19.426 17.641 18.3955V16.7778C17.641 13.8924 15.3 11.5514 12.4146 11.5514Z" fill="#191919"/>
</svg>
