<svg width="19" height="20" viewBox="0 0 19 20" fill="none" xmlns="http://www.w3.org/2000/svg">
<path d="M7.38885 7.02465L9.43107 9.07053C9.54473 9.18419 9.54473 9.37118 9.43107 9.48484L9.01676 9.89915C8.9031 10.0128 8.71611 10.0128 8.60245 9.89915L6.56022 7.85327L4.89932 9.51418L6.9452 11.5601C7.05886 11.6737 7.05886 11.8607 6.9452 11.9744L6.53089 12.3887C6.41723 12.5023 6.23024 12.5023 6.11658 12.3887L4.07069 10.3391L3.10275 11.3071C2.46845 11.9414 2.16413 12.814 2.25946 13.7049L2.51978 16.0368L0.0852453 18.4714C-0.0284151 18.585 -0.0284151 18.772 0.0852453 18.8857L0.499556 19.3C0.613216 19.4136 0.800206 19.4136 0.913867 19.3L3.34473 16.8691L5.67661 17.1294C6.55289 17.2248 7.43284 16.9314 8.07447 16.2861L14.7438 9.61684L9.76838 4.64144L7.38885 7.02465ZM18.6889 3.60383L15.7851 0.699991C15.6714 0.586331 15.4844 0.586331 15.3707 0.699991L14.9564 1.1143C14.8428 1.22796 14.8428 1.41495 14.9564 1.52861L15.994 2.56622L14.3331 4.22713L12.2579 2.15191L11.6346 1.52861C11.521 1.41495 11.334 1.41495 11.2203 1.52861L9.97737 2.77154C9.86371 2.88521 9.86371 3.0722 9.97737 3.18586L10.6007 3.80915L15.5761 8.79188L16.1994 9.41518C16.313 9.52884 16.5 9.52884 16.6137 9.41518L17.8566 8.16858C17.9703 8.05492 17.9703 7.86793 17.8566 7.75427L15.1618 5.05942L16.8227 3.39851L17.8603 4.43612C17.9739 4.54978 18.1609 4.54978 18.2746 4.43612L18.6889 4.02181C18.8026 3.90448 18.8026 3.72116 18.6889 3.60383Z" fill="black"/>
</svg>
